<svg width="36" height="36" viewBox="0 0 36 36" fill="none" xmlns="http://www.w3.org/2000/svg">
<rect y="0.24707" width="35.506" height="35.506" rx="17.753" fill="#D71A21"/>
<path d="M19.5892 8.30429C19.3772 8.57777 19.2616 8.91365 19.2604 9.25966V12.259C19.2447 12.4861 19.1585 12.6976 19.0176 12.8777C18.9392 12.956 18.4773 13.3711 18.4381 13.4181L18.6966 13.426C18.7826 13.3476 19.6754 12.5567 19.7615 12.4471C20.02 12.1651 20.1687 11.7971 20.1687 11.4133V8.53142C20.1651 8.38596 20.1902 8.24121 20.2426 8.10548C20.295 7.96975 20.3737 7.84571 20.4742 7.74047C20.5838 7.62292 20.9285 7.33325 20.991 7.26272L20.717 7.25488C20.6622 7.32541 19.6833 8.21025 19.5892 8.30429ZM17.3887 19.2132L18.4773 20.1609H19.2055C19.9024 20.1609 20.5759 19.8867 21.0694 19.3934C21.5158 18.947 21.6802 18.3439 21.6802 17.7801V16.2217C21.6724 15.8693 21.5235 15.5325 21.2573 15.2977C21.2103 15.2506 20.8893 14.9452 20.8893 14.9452V16.1433C20.8893 16.1433 21.2416 16.5037 21.3043 16.5741C21.6254 16.9187 21.6254 17.5452 20.5995 18.5398C20.4194 18.7119 19.9104 19.1975 19.2057 19.1975L17.3887 19.2132Z" fill="white"/>
<path d="M20.4192 12.8138C20.3017 12.9391 20.1843 13.2524 20.1843 13.5342V14.1216H20.7794C21.0145 14.1216 21.3199 13.9102 21.3826 13.8005V13.2131C21.4708 13.3418 21.5792 13.4555 21.7036 13.5498C21.7663 13.4714 22.3144 12.8137 22.7685 12.8058C23.5283 12.798 23.356 13.7612 23.0505 14.0667C22.9488 14.1684 22.5024 14.5757 22.3614 14.7087C22.0011 15.0534 21.3824 14.889 21.3824 14.004C21.3824 14.004 20.7247 14.6305 20.6228 14.7166C20.5211 14.8028 20.1843 15.163 20.1843 15.163V16.7215C20.1843 17.4654 19.9415 17.7161 19.7379 17.9432C19.6595 18.0292 18.8217 18.7968 18.7043 18.8829L18.43 18.8907C18.43 18.8907 18.9234 18.4443 19.0174 18.3426C19.127 18.225 19.2602 17.9901 19.2602 17.5985C19.2602 17.4968 19.2446 15.1552 19.2446 15.1552H15.4228C14.0915 15.1552 13.8096 13.683 13.8017 13.2835V11.8036C13.8017 11.5608 13.6451 11.1536 13.4023 11.0283H13.7784C13.8252 11.0439 14.0602 11.1379 14.0602 12.0462C14.0602 12.0462 14.0445 13.0958 14.0445 13.1583C14.0445 13.6204 14.4126 14.1451 14.9373 14.1451L19.2601 14.1372C19.2601 14.0197 19.3776 13.5812 19.5891 13.3463C19.7066 13.2132 20.6385 12.3674 20.7404 12.2813H21.0144C20.9752 12.3205 20.5211 12.7198 20.4271 12.8295L20.4192 12.8138ZM21.8368 13.6987C21.9487 13.8511 22.0717 13.9951 22.2049 14.1294C22.6746 14.5053 22.8939 14.098 22.5807 13.6751C22.4553 13.503 21.9776 13.5499 21.8367 13.6987H21.8368Z" fill="white"/>
<path d="M17.2015 16.488C17.2015 16.6993 16.5358 17.2554 16.4966 17.2868C16.4497 17.0597 16.2773 16.8169 15.784 16.3156L16.5123 15.5874C17.0057 16.0808 17.2015 16.1905 17.2015 16.488ZM18.4702 8.11638C18.6189 8.26513 18.9321 8.65669 18.7442 8.85246C18.6024 8.99522 18.4614 9.1388 18.3213 9.2832C18.3056 9.18916 18.0629 8.95434 18.0629 8.95434V9.74528C18.0551 10.0663 17.9376 10.1525 17.9376 10.1525C17.9376 10.1525 18.5249 10.7319 18.5249 11.4838V12.2512C18.5283 12.3232 18.5169 12.3951 18.4913 12.4625C18.4657 12.5299 18.4265 12.5913 18.3761 12.6429C18.3213 12.7054 17.781 13.2537 17.6948 13.3241C17.5695 13.4338 17.4129 13.4964 17.2483 13.4885H15.2203C14.8992 13.4885 14.5703 13.238 14.5703 12.9874C14.5703 12.9247 14.5781 12.2357 14.5781 12.2357C14.6799 12.3531 14.7895 12.494 15.0401 12.494C15.2437 12.494 15.4473 12.3374 15.5022 12.2747C15.557 12.2121 17.0372 10.6771 17.0372 10.6771C17.0372 10.6771 16.348 10.035 15.8939 9.72961C15.6744 9.58085 15.3769 9.76879 15.3299 9.96457C15.189 10.5754 15.3299 11.4994 15.3299 11.4994L14.7739 10.9434C14.5468 10.7163 14.5546 10.2074 14.8286 9.94106C14.8678 9.89404 15.2829 9.43979 15.7998 9.43979H16.6064C17.1467 9.43979 17.7419 9.98024 17.7419 9.98024C17.7889 9.92538 17.8203 9.86269 17.8281 9.79216C17.8281 9.51032 17.8203 8.7664 17.8203 8.7664C17.4131 8.35917 17.3582 7.93627 17.554 7.7405C17.922 7.37246 18.0552 7.24707 18.0552 7.24707C18.0552 7.24707 18.0396 7.69348 18.4703 8.11638H18.4702ZM15.9249 12.1886C15.7213 12.3999 15.69 12.4471 15.502 12.5645H17.7888C18.4075 12.5645 18.2822 12.1808 18.1725 11.985C17.9454 11.5856 17.225 10.8494 17.225 10.8494C17.225 10.8494 15.9641 12.1495 15.9249 12.1886Z" fill="white"/>
<path d="M13.3173 14.2705H12.9414C12.9414 14.2705 13.3408 14.4898 13.3408 15.0614V16.8861C13.3408 18.0686 14.3197 19.1651 15.51 19.1651H16.5046C17.0997 19.1651 17.3112 19.024 17.6715 18.703C17.8045 18.5854 17.9769 18.3896 18.0396 18.3193C18.2432 18.0842 18.4703 17.8964 18.4703 17.2855V16.6904C18.4703 16.1734 18.1726 15.962 18.0239 15.8132C17.9096 15.7004 17.7948 15.5882 17.6794 15.4765V16.6982C17.6794 16.6982 17.9299 16.9644 18.0396 17.0506C18.5564 17.4578 18.1491 18.1627 17.6637 18.1627H15.4787C14.6799 18.1782 13.5914 17.4656 13.5914 16.2595V15.2729C13.5991 14.2705 13.3171 14.2705 13.3171 14.2705H13.3173Z" fill="white"/>
<path d="M15.7131 16.4954C15.7131 16.7067 15.0474 17.2628 15.0084 17.2942C14.9614 17.067 14.7891 16.8242 14.2957 16.323L15.024 15.5947C15.5096 16.0803 15.7131 16.1899 15.7131 16.4954ZM8.07756 24.6007H6.90291C6.53486 24.6007 6.56621 24.2954 6.52703 24.0368V22.361C6.52703 22.361 6.7855 22.3531 7.07517 22.3531C7.39633 22.3531 7.80356 22.3061 8.19511 22.5254C8.09546 22.3148 7.93627 22.138 7.73722 22.017C7.53817 21.8959 7.308 21.8358 7.07517 21.8442H6.53486V21.3037C6.53486 21.3037 6.53486 20.8338 6.41731 20.7007H7.19258C7.85842 20.7007 8.37522 20.6929 8.91552 21.0453C8.91552 21.0453 8.81379 20.1604 7.52172 20.1604H5C5 20.1604 5.43843 20.5363 5.42276 21.2959L5.43843 24.3501C5.43843 25.1176 5.74392 25.141 5.74392 25.141H8.22646C8.79028 25.141 8.98605 24.7416 8.98605 24.5225L8.99389 24.2327C8.99389 24.2327 8.81379 24.6007 8.07756 24.6007ZM14.6872 24.3422V22.2044C14.6872 21.3743 14.0137 21.1548 13.5047 21.1548C12.839 21.1548 12.6354 21.7109 12.5493 21.9067C12.4005 21.3899 11.8758 21.155 11.4529 21.155C10.6463 21.155 10.4426 21.9224 10.4426 21.9224C10.4426 21.9224 10.427 21.1785 9.777 21.1785H9.14265C9.14265 21.1785 9.51069 21.3272 9.51069 21.9694V24.3422C9.51069 25.1253 9.82402 25.141 9.82402 25.141H10.8734C10.6228 24.9531 10.474 24.6554 10.474 24.3344V22.2279C10.4897 22.1338 10.6462 21.8207 11.0926 21.8207C11.351 21.8207 11.633 22.0868 11.6252 22.3845V24.3422C11.6252 25.1332 11.9385 25.141 11.9385 25.141H12.9878C12.7373 24.9452 12.5884 24.6554 12.5884 24.3344V22.2279C12.6375 22.0796 12.7434 21.9567 12.8828 21.8863C13.0222 21.8158 13.1839 21.8034 13.3325 21.8519C13.5674 21.9302 13.7318 22.1417 13.7397 22.3923V24.3422C13.7475 25.141 14.0529 25.1332 14.0529 25.1332H15.1024C14.9767 25.0424 14.8738 24.9238 14.8018 24.7865C14.7297 24.6493 14.6905 24.4972 14.6872 24.3422ZM16.5197 24.3422C16.52 24.4972 16.5561 24.65 16.6255 24.7886C16.6948 24.9272 16.7953 25.0479 16.9191 25.141H15.8697C15.8697 25.141 15.5487 25.1489 15.5487 24.3501V21.9616C15.5487 21.3351 15.1885 21.1706 15.1885 21.1706H15.8228C16.0498 21.1706 16.5119 21.1706 16.5119 22.0555V24.3267L16.5197 24.3422ZM19.7462 21.476C19.7462 21.476 19.6445 21.1941 19.2137 21.1941C18.556 21.1941 18.3993 21.9773 18.3993 21.9773C18.3444 21.3586 18.18 21.1785 17.7179 21.1785H17.0835C17.0835 21.1785 17.4516 21.3272 17.4516 21.9694V24.3422C17.4516 25.1253 17.7651 25.141 17.7651 25.141H18.8143C18.6905 25.0479 18.59 24.9272 18.5207 24.7886C18.4514 24.65 18.4152 24.4972 18.4149 24.3422V22.3923C18.4384 22.2279 18.5325 22.079 18.6734 21.9929C19.0258 21.758 19.4879 21.8285 19.7619 22.1495L19.7462 21.476ZM24.6252 21.617C24.8443 21.617 25.0558 21.6718 25.2437 21.7736V21.1785H24.3667V20.27C24.1788 20.5676 23.936 20.8339 23.6619 21.0609C23.3643 21.3037 22.7378 21.6092 22.7378 21.6092L23.4035 21.617V24.3736C23.4035 25.141 23.7245 25.141 23.7245 25.141H24.7661C24.6432 25.0518 24.5425 24.9355 24.4718 24.801C24.4012 24.6665 24.3626 24.5176 24.3589 24.3658V21.617H24.6252ZM27.8046 22.8152C27.2173 23.4261 26.7552 23.332 26.387 23.7863C26.387 23.7863 26.4499 24.3971 26.9118 24.6085C27.0686 24.6791 27.7184 24.914 28.1335 24.1935V24.8357C28.1335 24.8357 27.8673 25.1489 27.0137 25.1489C25.9878 25.1489 25.2829 24.3422 25.2829 23.246C25.2829 22.1652 25.8547 21.1706 26.9432 21.1628C28.0004 21.1471 28.5799 22.0086 27.8046 22.8152ZM27.1625 22.5646C27.3347 22.2436 27.4758 21.4291 26.8806 21.476C26.1914 21.5308 26.3245 23.3555 26.3245 23.3555C26.5516 23.105 26.8961 23.0502 27.1625 22.5646ZM16.0343 20.8575C16.3004 20.8495 16.5041 20.6302 16.5041 20.3719C16.4962 20.1056 16.2769 19.9019 16.0185 19.9019C15.7601 19.9098 15.5487 20.1212 15.5487 20.3797C15.5487 20.6459 15.768 20.8573 16.0343 20.8573V20.8575ZM20.8348 24.6869C20.5998 24.6869 20.4276 24.4363 20.4276 24.1856C20.4276 23.1989 21.2342 23.058 21.4535 22.7995V24.4676C21.3517 24.546 21.2577 24.6869 20.8349 24.6869H20.8348ZM21.4535 22.4157C21.2107 22.8387 19.3156 22.9326 19.6053 24.3971C19.7228 24.9766 20.1065 25.1489 20.592 25.1489C21.0619 25.1489 21.3517 24.9062 21.4691 24.6712C21.5397 25.1098 21.7668 25.141 21.7668 25.141H22.8161C22.5656 24.9531 22.4088 24.6634 22.4088 24.3501V22.1183C22.4088 21.5858 21.8215 21.1708 21.195 21.1708C20.8465 21.1629 20.5042 21.2641 20.2161 21.4605V22.1497C20.2161 22.1497 20.4354 21.6015 20.9757 21.6015C21.5083 21.6015 21.5475 21.8677 21.5475 22.0009C21.5553 22.1418 21.5318 22.2906 21.4535 22.416V22.4157ZM30.1227 24.0604C30.1306 24.3422 29.8799 24.7104 29.3475 24.7104C28.7992 24.7104 28.5799 24.1543 28.5799 24.1543V24.8592C28.8776 25.0471 29.2222 25.141 29.5745 25.141C30.2872 25.141 31.0154 24.6007 30.9998 23.841C30.9921 23.5917 30.9073 23.351 30.7571 23.1519C30.5143 22.8309 30.0756 22.6038 29.7312 22.3923C29.5353 22.2748 29.4335 22.0555 29.4335 21.9851C29.4257 21.8519 29.4962 21.5857 30.0209 21.5857C30.5378 21.5857 30.7649 22.1338 30.7649 22.1338V21.4682C30.4751 21.2645 30.1226 21.155 29.7624 21.155C29.1359 21.155 28.5642 21.57 28.5799 22.1025C28.5877 22.5724 28.7835 22.8701 29.1672 23.1597C29.3397 23.2838 29.5203 23.3963 29.7077 23.4964C30.0052 23.661 30.1149 23.8645 30.1227 24.0604Z" fill="white"/>
</svg>
