<svg width="25" height="26" viewBox="0 0 25 26" fill="none" xmlns="http://www.w3.org/2000/svg">
<path d="M21.6869 9.03487C22.2284 9.03487 22.7477 9.24998 23.1306 9.63286C23.5135 10.0157 23.7286 10.5351 23.7286 11.0765V15.1599C23.7286 15.7014 23.5135 16.2207 23.1306 16.6035C22.7477 16.9864 22.2284 17.2015 21.6869 17.2015H20.6028C20.3541 19.1752 19.3937 20.9902 17.9016 22.306C16.4096 23.6217 14.4887 24.3476 12.4994 24.3474V22.3057C14.1239 22.3057 15.6818 21.6604 16.8305 20.5117C17.9791 19.3631 18.6244 17.8052 18.6244 16.1807V10.0557C18.6244 8.43125 17.9791 6.87334 16.8305 5.72468C15.6818 4.57602 14.1239 3.9307 12.4994 3.9307C10.875 3.9307 9.31706 4.57602 8.1684 5.72468C7.01974 6.87334 6.37443 8.43125 6.37443 10.0557V17.2015H3.31193C2.77045 17.2015 2.25114 16.9864 1.86825 16.6035C1.48537 16.2207 1.27026 15.7014 1.27026 15.1599V11.0765C1.27026 10.5351 1.48537 10.0157 1.86825 9.63286C2.25114 9.24998 2.77045 9.03487 3.31193 9.03487H4.39605C4.64517 7.06149 5.60582 5.24684 7.09776 3.93139C8.58971 2.61595 10.5104 1.89014 12.4994 1.89014C14.4885 1.89014 16.4092 2.61595 17.9011 3.93139C19.393 5.24684 20.3537 7.06149 20.6028 9.03487H21.6869ZM8.1711 16.9821L9.25318 15.2507C10.2261 15.8603 11.3514 16.1827 12.4994 16.1807C13.6475 16.1827 14.7728 15.8603 15.7457 15.2507L16.8278 16.9821C15.5306 17.7949 14.0302 18.2249 12.4994 18.2224C10.9686 18.2249 9.46824 17.7949 8.1711 16.9821Z" fill="white"/>
</svg>
