<svg width="18" height="17" viewBox="0 0 18 17" fill="none" xmlns="http://www.w3.org/2000/svg">
<path d="M1.5 8.5H16.5M9 16V1M2.25 10.75V6.25M15.75 10.75V6.25M11.25 15.25H6.75M11.25 1.75H6.75M2.25 2.875C2.25 2.57663 2.36853 2.29048 2.5795 2.0795C2.79048 1.86853 3.07663 1.75 3.375 1.75H14.625C14.9234 1.75 15.2095 1.86853 15.4205 2.0795C15.6315 2.29048 15.75 2.57663 15.75 2.875V14.125C15.75 14.4234 15.6315 14.7095 15.4205 14.9205C15.2095 15.1315 14.9234 15.25 14.625 15.25H3.375C3.07663 15.25 2.79048 15.1315 2.5795 14.9205C2.36853 14.7095 2.25 14.4234 2.25 14.125V2.875Z" stroke="#FFAE00" strokeWidth="1.5" strokeLinecap="round" strokeLinejoin="round"/>
<path d="M9.00012 8.50012C9.00012 8.50012 11.9615 7.17037 12.4122 6.72C12.6287 6.50358 12.7502 6.21006 12.7502 5.904C12.7502 5.59794 12.6287 5.30442 12.4122 5.088C12.1958 4.87158 11.9023 4.75 11.5962 4.75C11.2902 4.75 10.9967 4.87158 10.7802 5.088C10.3299 5.53875 9.00012 8.50012 9.00012 8.50012ZM9.00012 8.50012C9.00012 8.50012 6.03875 7.17037 5.588 6.72M9.00012 8.50012C9.00012 8.50012 7.67037 5.53875 7.22 5.088M9.00012 8.50012C9.00012 8.50012 11.9615 9.82987 12.4122 10.2802M9.00012 8.50012C9.00012 8.50012 10.3299 11.4615 10.7802 11.9122M9.00012 8.50012C9.00012 8.50012 6.03875 9.82987 5.588 10.2802C5.48084 10.3874 5.39584 10.5146 5.33784 10.6546C5.27985 10.7946 5.25 10.9447 5.25 11.0962C5.25 11.2478 5.27985 11.3979 5.33784 11.5379C5.39584 11.6779 5.48084 11.8051 5.588 11.9122C5.69516 12.0194 5.82237 12.1044 5.96238 12.1624C6.10239 12.2204 6.25245 12.2502 6.404 12.2502C6.55554 12.2502 6.7056 12.2204 6.84561 12.1624C6.98562 12.1044 7.11284 12.0194 7.22 11.9122C7.67037 11.4615 9.00012 8.50012 9.00012 8.50012Z" stroke="#FFAE00" strokeWidth="1.5" strokeLinecap="round" strokeLinejoin="round"/>
</svg>
